<?xml version="1.0" standalone="no"?>
<!DOCTYPE svg PUBLIC "-//W3C//DTD SVG 20010904//EN"
 "http://www.w3.org/TR/2001/REC-SVG-20010904/DTD/svg10.dtd">
<svg version="1.0" xmlns="http://www.w3.org/2000/svg"
 width="1410.000000pt" height="1410.000000pt" viewBox="0 0 1410.000000 1410.000000"
 preserveAspectRatio="xMidYMid meet">
<metadata>
Created by potrace 1.14, written by Peter Selinger 2001-2017
</metadata>
<g transform="translate(0.000000,1410.000000) scale(0.100000,-0.100000)"
fill="#000000" stroke="none">
<path d="M7050 14070 c-14 -11 -28 -20 -31 -20 -4 0 -112 -60 -240 -133 -129
-74 -254 -145 -279 -159 -44 -25 -225 -127 -265 -150 -11 -6 -177 -101 -370
-211 -192 -109 -379 -216 -415 -237 -51 -30 -666 -380 -828 -472 -18 -10 -66
-37 -105 -59 -40 -23 -88 -50 -107 -61 -19 -11 -116 -66 -215 -123 -99 -56
-328 -187 -510 -290 -181 -103 -346 -197 -365 -208 -19 -11 -53 -30 -75 -42
-22 -13 -96 -55 -163 -94 -68 -39 -126 -71 -128 -71 -2 0 -32 -17 -66 -38 -35
-21 -67 -41 -73 -43 -8 -3 -608 -346 -665 -379 -27 -16 -294 -167 -345 -195
-28 -15 -75 -42 -105 -60 -30 -18 -207 -119 -393 -225 l-337 -192 -1 -161 c0
-163 -2 -575 -14 -2412 -13 -2167 -15 -2467 -20 -3451 l-6 -1021 73 -44 c40
-24 82 -49 93 -55 11 -6 36 -21 55 -32 19 -12 42 -25 50 -29 8 -4 71 -40 140
-82 69 -41 139 -82 155 -91 17 -9 149 -87 295 -172 146 -86 279 -164 297 -174
168 -98 407 -237 538 -314 88 -51 172 -101 187 -111 15 -11 30 -19 33 -19 3 0
24 -11 46 -26 22 -14 55 -33 72 -43 46 -27 313 -183 373 -218 27 -17 70 -42
95 -55 46 -27 191 -111 237 -139 40 -24 555 -325 594 -348 82 -47 203 -118
236 -139 20 -12 44 -25 52 -29 8 -4 61 -35 118 -70 57 -35 105 -63 108 -63 3
0 99 -56 154 -90 14 -9 90 -53 155 -90 17 -10 251 -147 520 -305 270 -158 508
-297 531 -310 22 -12 74 -43 115 -67 72 -44 167 -100 239 -141 19 -11 47 -27
62 -36 237 -141 449 -261 458 -261 7 0 146 76 309 169 163 93 313 178 334 190
21 12 71 40 110 62 40 23 88 50 107 61 271 155 358 205 375 215 11 7 27 16 35
20 8 4 69 38 135 76 66 38 143 82 170 97 28 15 95 54 150 85 55 32 120 69 145
83 25 14 59 33 75 43 17 10 46 26 65 36 19 9 37 19 40 22 5 6 19 14 99 59 25
14 104 58 174 98 71 41 133 74 138 74 5 0 9 4 9 8 0 4 12 13 28 19 15 7 41 20
57 30 36 22 142 83 170 98 87 49 149 84 246 140 61 36 113 65 114 65 2 0 218
123 245 140 8 5 31 18 50 28 19 11 260 147 535 304 275 157 664 379 865 493
326 186 806 459 900 513 19 11 121 68 225 127 105 59 197 113 205 119 13 9 15
80 17 511 1 275 5 982 8 1570 4 589 8 1347 10 1685 6 999 16 2765 18 3034 l2
249 -35 23 c-19 12 -127 76 -240 142 -113 65 -240 140 -283 166 -43 25 -83 46
-88 46 -5 0 -9 5 -9 10 0 6 -5 10 -10 10 -6 0 -39 17 -73 38 -35 21 -70 41
-77 45 -8 4 -28 16 -45 27 -16 11 -37 23 -45 27 -8 4 -82 47 -163 95 -82 48
-151 88 -153 88 -3 0 -33 17 -67 39 -53 33 -721 425 -1072 629 -60 35 -119 69
-130 75 -10 7 -46 28 -80 48 -87 52 -255 150 -290 170 -16 9 -106 61 -200 116
-191 112 -814 477 -860 503 -30 18 -180 106 -213 125 -9 6 -57 34 -105 63 -49
28 -90 52 -92 52 -2 0 -40 23 -85 50 -45 28 -83 50 -86 50 -2 0 -23 12 -47 27
-36 23 -321 191 -412 243 -16 9 -124 72 -240 140 -186 109 -239 140 -360 210
-67 38 -241 141 -255 150 -8 6 -22 13 -30 17 -8 4 -61 35 -118 70 -57 35 -111
63 -120 63 -9 0 -28 -9 -42 -20z"/>
</g>
</svg>
